<?xml version="1.0" encoding="utf-8"?>
<!-- Generator: Adobe Illustrator 19.0.0, SVG Export Plug-In . SVG Version: 6.00 Build 0)  -->
<svg version="1.1" id="Layer_1" xmlns="http://www.w3.org/2000/svg" xmlns:xlink="http://www.w3.org/1999/xlink" x="0px" y="0px"
	 viewBox="0 0 1920 1080" style="enable-background:new 0 0 1920 1080;" xml:space="preserve">
<style type="text/css">
	.st0{fill:url(#XMLID_20_);stroke:url(#XMLID_21_);stroke-miterlimit:10;}
	.st1{fill:#D8DAEA;stroke:url(#XMLID_22_);stroke-miterlimit:10;}
	.st2{fill:#D8DAEA;stroke:url(#XMLID_23_);stroke-miterlimit:10;}
	.st3{fill:#D8DAEA;stroke:url(#XMLID_24_);stroke-miterlimit:10;}
	.st4{fill:#D8DAEA;stroke:url(#XMLID_25_);stroke-miterlimit:10;}
	.st5{fill:#D8DAEA;stroke:url(#XMLID_26_);stroke-miterlimit:10;}
	.st6{fill:#D8DAEA;stroke:url(#XMLID_27_);stroke-miterlimit:10;}
	.st7{fill:#D8DAEA;stroke:url(#XMLID_28_);stroke-miterlimit:10;}
	.st8{fill:#D8DAEA;stroke:url(#XMLID_29_);stroke-miterlimit:10;}
	.st9{fill:#D8DAEA;stroke:url(#XMLID_30_);stroke-miterlimit:10;}
	.st10{fill:#D8DAEA;stroke:url(#XMLID_31_);stroke-miterlimit:10;}
	.st11{fill:#D8DAEA;stroke:url(#XMLID_32_);stroke-miterlimit:10;}
	.st12{fill:#D8DAEA;stroke:url(#XMLID_33_);stroke-miterlimit:10;}
	.st13{fill:#D8DAEA;stroke:url(#XMLID_34_);stroke-miterlimit:10;}
	.st14{fill:#D8DAEA;stroke:url(#XMLID_35_);stroke-miterlimit:10;}
	.st15{fill:#D8DAEA;stroke:url(#XMLID_36_);stroke-miterlimit:10;}
	.st16{fill:#D8DAEA;stroke:url(#XMLID_37_);stroke-miterlimit:10;}
	.st17{fill:#D8DAEA;stroke:url(#XMLID_38_);stroke-miterlimit:10;}
</style>
<linearGradient id="XMLID_20_" gradientUnits="userSpaceOnUse" x1="-455.8387" y1="536.2502" x2="1522.5624" y2="536.2502" gradientTransform="matrix(-1.346898e-010 -1 1 -1.346898e-010 423.7498 1506.9305)">
	<stop  offset="0" style="stop-color:#29ABE2"/>
	<stop  offset="1" style="stop-color:#2E3192"/>
</linearGradient>
<linearGradient id="XMLID_21_" gradientUnits="userSpaceOnUse" x1="-456.3387" y1="536.2502" x2="1523.0624" y2="536.2502" gradientTransform="matrix(-1.346898e-010 -1 1 -1.346898e-010 423.7498 1506.9305)">
	<stop  offset="0" style="stop-color:#FFFFFF"/>
	<stop  offset="1" style="stop-color:#2E3192"/>
</linearGradient>
<rect id="XMLID_1_" x="-12" y="-15.6" class="st0" width="1943.9" height="1978.4"/>
<linearGradient id="XMLID_22_" gradientUnits="userSpaceOnUse" x1="176.7892" y1="57.1549" x2="207.4685" y2="57.1549">
	<stop  offset="0" style="stop-color:#FFFFFF"/>
	<stop  offset="1" style="stop-color:#2E3192"/>
</linearGradient>
<polygon id="XMLID_2_" class="st1" points="192.1,70.6 187.7,61.7 177.9,60.2 185,53.3 183.3,43.5 192.1,48.1 200.9,43.5 
	199.3,53.3 206.4,60.2 196.5,61.7 "/>
<linearGradient id="XMLID_23_" gradientUnits="userSpaceOnUse" x1="306.1968" y1="279.8014" x2="323.6713" y2="279.8014">
	<stop  offset="0" style="stop-color:#FFFFFF"/>
	<stop  offset="1" style="stop-color:#2E3192"/>
</linearGradient>
<polygon id="XMLID_3_" class="st2" points="322.6,282.1 317.3,282.5 314.6,287.2 312.5,282.2 307.3,281.1 311.4,277.6 310.8,272.3 
	315.4,275.1 320.3,272.9 319,278.1 "/>
<linearGradient id="XMLID_24_" gradientUnits="userSpaceOnUse" x1="902.8927" y1="100.7687" x2="916.3896" y2="100.7687">
	<stop  offset="0" style="stop-color:#FFFFFF"/>
	<stop  offset="1" style="stop-color:#2E3192"/>
</linearGradient>
<polygon id="XMLID_4_" class="st3" points="910.6,106.6 907.9,103.5 903.9,103.9 906,100.4 904.4,96.6 908.3,97.6 911.4,94.9 
	911.7,99 915.3,101 911.5,102.6 "/>
<linearGradient id="XMLID_25_" gradientUnits="userSpaceOnUse" x1="644.8832" y1="191.9539" x2="664.5731" y2="191.9539">
	<stop  offset="0" style="stop-color:#FFFFFF"/>
	<stop  offset="1" style="stop-color:#2E3192"/>
</linearGradient>
<polygon id="XMLID_5_" class="st4" points="663.1,198.1 656.9,196.7 652.2,201.1 651.6,194.7 646,191.7 651.9,189.1 653.1,182.8 
	657.3,187.6 663.6,186.8 660.4,192.3 "/>
<linearGradient id="XMLID_26_" gradientUnits="userSpaceOnUse" x1="661.1282" y1="547.8412" x2="666.1302" y2="547.8412">
	<stop  offset="0" style="stop-color:#FFFFFF"/>
	<stop  offset="1" style="stop-color:#2E3192"/>
</linearGradient>
<polygon id="XMLID_6_" class="st5" points="663.6,549.1 663.2,548.2 662.2,548.1 662.9,547.4 662.7,546.4 663.6,546.8 664.5,546.4 
	664.3,547.4 665.1,548.1 664.1,548.2 "/>
<linearGradient id="XMLID_27_" gradientUnits="userSpaceOnUse" x1="1672.9923" y1="547.1573" x2="1690.302" y2="547.1573">
	<stop  offset="0" style="stop-color:#FFFFFF"/>
	<stop  offset="1" style="stop-color:#2E3192"/>
</linearGradient>
<polygon id="XMLID_7_" class="st6" points="1674.1,549.1 1677.7,545.3 1676.7,540.1 1681.4,542.4 1686,539.8 1685.3,545 
	1689.2,548.6 1684,549.5 1681.8,554.3 1679.3,549.7 "/>
<linearGradient id="XMLID_28_" gradientUnits="userSpaceOnUse" x1="797.4216" y1="775.2164" x2="811.4994" y2="775.2164">
	<stop  offset="0" style="stop-color:#FFFFFF"/>
	<stop  offset="1" style="stop-color:#2E3192"/>
</linearGradient>
<polygon id="XMLID_8_" class="st7" points="799.6,780.1 801,776.1 798.4,772.7 802.7,772.7 805.1,769.3 806.3,773.3 810.4,774.6 
	806.9,777 807,781.2 803.6,778.7 "/>
<linearGradient id="XMLID_29_" gradientUnits="userSpaceOnUse" x1="174.8227" y1="671.359" x2="207.4" y2="671.359">
	<stop  offset="0" style="stop-color:#FFFFFF"/>
	<stop  offset="1" style="stop-color:#2E3192"/>
</linearGradient>
<polygon id="XMLID_9_" class="st8" points="206.4,678.1 195.7,677.8 189.4,686.5 186.4,676.2 175.9,672.9 184.5,666.8 184.5,656.1 
	193.2,662.6 203.5,659.3 200,669.4 "/>
<linearGradient id="XMLID_30_" gradientUnits="userSpaceOnUse" x1="1205.511" y1="422.56" x2="1249.0708" y2="422.56">
	<stop  offset="0" style="stop-color:#FFFFFF"/>
	<stop  offset="1" style="stop-color:#2E3192"/>
</linearGradient>
<polygon id="XMLID_10_" class="st9" points="1248.1,432.1 1233.4,431.6 1224.6,443.4 1220.6,429.2 1206.6,424.6 1218.8,416.3 
	1219,401.6 1230.6,410.7 1244.6,406.3 1239.6,420.1 "/>
<linearGradient id="XMLID_31_" gradientUnits="userSpaceOnUse" x1="1636.1246" y1="131.9187" x2="1661.6921" y2="131.9187">
	<stop  offset="0" style="stop-color:#FFFFFF"/>
	<stop  offset="1" style="stop-color:#2E3192"/>
</linearGradient>
<polygon id="XMLID_11_" class="st10" points="1645.6,144.1 1644.7,135.6 1637.3,131.5 1645,128.1 1646.6,119.8 1652.3,126.1 
	1660.7,125 1656.5,132.4 1660.1,140.1 1651.8,138.3 "/>
<linearGradient id="XMLID_32_" gradientUnits="userSpaceOnUse" x1="1375.9398" y1="131.9342" x2="1402.4041" y2="131.9342">
	<stop  offset="0" style="stop-color:#FFFFFF"/>
	<stop  offset="1" style="stop-color:#2E3192"/>
</linearGradient>
<polygon id="XMLID_12_" class="st11" points="1377.1,131.9 1385.1,128 1386.4,119.1 1392.7,125.5 1401.5,124 1397.3,131.9 
	1401.5,139.9 1392.7,138.4 1386.4,144.8 1385.1,135.9 "/>
<linearGradient id="XMLID_33_" gradientUnits="userSpaceOnUse" x1="1475.2104" y1="640.0479" x2="1485.9185" y2="640.0479">
	<stop  offset="0" style="stop-color:#FFFFFF"/>
	<stop  offset="1" style="stop-color:#2E3192"/>
</linearGradient>
<polygon id="XMLID_13_" class="st12" points="1480.6,636.1 1481.9,638.8 1484.8,639.2 1482.7,641.3 1483.2,644.2 1480.6,642.8 
	1477.9,644.2 1478.4,641.3 1476.3,639.2 1479.2,638.8 "/>
<linearGradient id="XMLID_34_" gradientUnits="userSpaceOnUse" x1="1361.1016" y1="787.8459" x2="1379.4076" y2="787.8459">
	<stop  offset="0" style="stop-color:#FFFFFF"/>
	<stop  offset="1" style="stop-color:#2E3192"/>
</linearGradient>
<polygon id="XMLID_14_" class="st13" points="1362.1,792.1 1365.2,787.2 1363,781.8 1368.6,783.3 1373,779.5 1373.3,785.3 
	1378.3,788.3 1372.9,790.4 1371.5,796.1 1367.9,791.6 "/>
<linearGradient id="XMLID_35_" gradientUnits="userSpaceOnUse" x1="707.4371" y1="456.8091" x2="723.8492" y2="456.8091">
	<stop  offset="0" style="stop-color:#FFFFFF"/>
	<stop  offset="1" style="stop-color:#2E3192"/>
</linearGradient>
<polygon id="XMLID_15_" class="st14" points="711.1,463.6 712,458.7 708.5,455.2 713.4,454.5 715.7,450.1 717.9,454.6 722.8,455.4 
	719.2,458.8 719.9,463.7 715.5,461.3 "/>
<linearGradient id="XMLID_36_" gradientUnits="userSpaceOnUse" x1="389.3019" y1="920.5609" x2="418.8848" y2="920.5609">
	<stop  offset="0" style="stop-color:#FFFFFF"/>
	<stop  offset="1" style="stop-color:#2E3192"/>
</linearGradient>
<polygon id="XMLID_16_" class="st15" points="399.1,934.6 398.7,924.8 390.4,919.5 399.6,916.1 402,906.6 408.1,914.3 417.9,913.7 
	412.5,921.8 416.1,930.9 406.7,928.3 "/>
<linearGradient id="XMLID_37_" gradientUnits="userSpaceOnUse" x1="1802.9498" y1="876.5441" x2="1822.1877" y2="876.5441">
	<stop  offset="0" style="stop-color:#FFFFFF"/>
	<stop  offset="1" style="stop-color:#2E3192"/>
</linearGradient>
<polygon id="XMLID_17_" class="st16" points="1813.5,885.1 1810,880.2 1804,880.3 1807.5,875.4 1805.5,869.7 1811.3,871.6 
	1816.1,867.9 1816.1,874 1821.1,877.4 1815.3,879.3 "/>
<linearGradient id="XMLID_38_" gradientUnits="userSpaceOnUse" x1="239.3744" y1="421.5341" x2="258.8776" y2="421.5341">
	<stop  offset="0" style="stop-color:#FFFFFF"/>
	<stop  offset="1" style="stop-color:#2E3192"/>
</linearGradient>
<polygon id="XMLID_18_" class="st17" points="249.1,413.4 251.8,418.8 257.8,419.7 253.5,423.9 254.5,429.9 249.1,427.1 
	243.8,429.9 244.8,423.9 240.4,419.7 246.4,418.8 "/>
</svg>
